# xmcd CD database file
#
# Track frame offsets:
#	150
#	18157
#	32812
#	53680
#	71460
#	91410
#	111407
#	133105
#	154505
#	173800
#
# Disc length: 2511 seconds
#
# Revision: 17
# Processed by: cddbd v1.5.2PL0 Copyright (c) Steve Scherf et al.
# Submitted via: CDex 1.70beta2
#
DISCID=7b09cd0a
DTITLE=ウルフルズ - バンザイ
DYEAR=1996
DGENRE=JPop
TTITLE0=ガッツだぜ!!
TTITLE1=トコトンで行こう!
TTITLE2=バンザイ～好きでよかった～
TTITLE3=暴動チャイル
TTITLE4=さんさんさん'95
TTITLE5=てんてこまい my mind
TTITLE6=大阪ストラット
TTITLE7=ダメなものはダメ
TTITLE8=おし愛 へし愛 どつき愛
TTITLE9=泣きたくないのに
EXTD=YEAR: 1996
EXTT0=
EXTT1=
EXTT2=
EXTT3=
EXTT4=
EXTT5=
EXTT6=
EXTT7=
EXTT8=
EXTT9=
PLAYORDER=
